<svg width="20" height="20" viewBox="0 0 20 20" fill="none" xmlns="http://www.w3.org/2000/svg">
<mask id="mask0_5143_10942" style="mask-type:alpha" maskUnits="userSpaceOnUse" x="0" y="0" width="20" height="20">
<rect width="20" height="20" fill="#D9D9D9"/>
</mask>
<g mask="url(#mask0_5143_10942)">
<path d="M4.79199 10.0418C4.79199 10.2854 4.80852 10.5281 4.84158 10.7701C4.87477 11.0122 4.93144 11.2507 5.01158 11.4857C5.06491 11.6631 5.05928 11.8327 4.9947 11.9945C4.93012 12.1563 4.82033 12.2725 4.66533 12.343C4.50185 12.422 4.33921 12.4284 4.17741 12.3622C4.0156 12.2959 3.90796 12.1742 3.85449 11.997C3.74338 11.6828 3.66352 11.3604 3.61491 11.0297C3.5663 10.6991 3.54199 10.3698 3.54199 10.0418C3.54199 8.2394 4.16915 6.70551 5.42345 5.44009C6.67776 4.17454 8.20338 3.54176 10.0003 3.54176H10.651L9.54845 2.43926C9.43303 2.32384 9.37401 2.17877 9.37137 2.00405C9.36873 1.82947 9.42776 1.68176 9.54845 1.56092C9.66915 1.44023 9.81547 1.37988 9.98741 1.37988C10.1595 1.37988 10.3059 1.44023 10.4266 1.56092L12.5051 3.63947C12.6558 3.79016 12.7312 3.96592 12.7312 4.16676C12.7312 4.36759 12.6558 4.54336 12.5051 4.69405L10.4266 6.77259C10.3112 6.88787 10.1662 6.9469 9.99158 6.94968C9.81685 6.95231 9.66915 6.89329 9.54845 6.77259C9.42776 6.65176 9.36741 6.50537 9.36741 6.33342C9.36741 6.16148 9.42776 6.01509 9.54845 5.89426L10.651 4.79176H10.0003C8.55269 4.79176 7.32269 5.30134 6.31033 6.32051C5.2981 7.33981 4.79199 8.58023 4.79199 10.0418ZM15.2087 9.95842C15.2087 9.71481 15.1921 9.47204 15.1591 9.23009C15.1259 8.98801 15.0692 8.74947 14.9891 8.51447C14.9357 8.33711 14.9414 8.16752 15.006 8.00572C15.0705 7.84391 15.1803 7.72773 15.3353 7.65717C15.4988 7.57815 15.6601 7.57176 15.8193 7.63801C15.9785 7.70426 16.0847 7.82599 16.138 8.00322C16.2491 8.31738 16.3304 8.63981 16.3818 8.97051C16.433 9.30106 16.4587 9.63037 16.4587 9.95842C16.4587 11.7608 15.8315 13.2947 14.5772 14.5601C13.3229 15.8256 11.7973 16.4584 10.0003 16.4584H9.3497L10.4522 17.5609C10.5676 17.6763 10.6266 17.8214 10.6293 17.9961C10.6319 18.1707 10.5729 18.3184 10.4522 18.4393C10.3315 18.56 10.1852 18.6203 10.0132 18.6203C9.84116 18.6203 9.69477 18.56 9.57408 18.4393L7.49553 16.3607C7.34484 16.21 7.26949 16.0343 7.26949 15.8334C7.26949 15.6326 7.34484 15.4568 7.49553 15.3061L9.57408 13.2276C9.68949 13.1123 9.83449 13.0533 10.0091 13.0505C10.1838 13.0479 10.3315 13.1069 10.4522 13.2276C10.5729 13.3484 10.6332 13.4948 10.6332 13.6668C10.6332 13.8387 10.5729 13.9851 10.4522 14.1059L9.3497 15.2084H10.0003C11.448 15.2084 12.678 14.6988 13.6903 13.6797C14.7025 12.6604 15.2087 11.42 15.2087 9.95842Z" fill="#111111"/>
</g>
</svg>
